<svg xmlns="http://www.w3.org/2000/svg" viewBox="0 0 318 70"><path fill="#B3B3B3" d="M82.653 41.967l-4.32-9.42h-.061l-4.321 9.42h8.702zm-23.472 12.22l17.872-38.422c.188-.369.557-.609.968-.631h.57c.415.02.788.26.977.63l17.871 38.423a1.012 1.012 0 01-.976 1.485h-6.335c-1.028 0-1.486-.345-1.996-1.425l-2.057-4.512H70.52L68.489 54.3a2.123 2.123 0 01-2.057 1.373h-6.274a1.01 1.01 0 01-.977-1.485zm41.223-37.394a1.09 1.09 0 011.08-1.09h6.793a1.132 1.132 0 011.088 1.09V47.28h13.586a1.08 1.08 0 011.088 1.072v6.232c0 .601-.487 1.089-1.088 1.089h-21.467a1.089 1.089 0 01-1.08-1.09v-37.79zm27.456 0c0-.602.487-1.09 1.088-1.09h6.758c.59.023 1.063.5 1.08 1.09V47.28h13.612c.597 0 1.08.484 1.08 1.08v6.223c0 .598-.482 1.084-1.08 1.089h-21.45a1.089 1.089 0 01-1.089-1.09v-37.79zm45.646 30.317c6.31.032 11.452-5.057 11.485-11.365.033-6.31-5.055-11.452-11.364-11.485-6.31-.034-11.451 5.054-11.485 11.364v.12c.042 6.26 5.106 11.322 11.364 11.365m0-31.975c11.355-.024 20.579 9.161 20.603 20.516.023 11.354-9.162 20.578-20.516 20.601-11.351.025-20.574-9.156-20.603-20.506-.052-11.332 9.09-20.559 20.421-20.611h.095m44.299-.001a19.16 19.16 0 0113.827 5.315 1.055 1.055 0 01.06 1.599l-4.45 4.623a1.002 1.002 0 01-1.418.008l-.008-.008a11.696 11.696 0 00-7.709-2.912c-6.455 0-11.234 5.367-11.234 11.762-.153 6.245 4.787 11.433 11.032 11.586a12.096 12.096 0 007.859-2.737 1.116 1.116 0 011.478.052l4.46 4.744a1.141 1.141 0 01-.061 1.539 19.578 19.578 0 01-13.827 5.54c-11.352.232-20.744-8.782-20.977-20.134-.232-11.352 8.781-20.743 20.133-20.977.281-.006.563-.006.844 0h-.009zm19.012 1.66a1.124 1.124 0 011.09-1.09h6.844a1.132 1.132 0 011.089 1.09v37.79a1.132 1.132 0 01-1.09 1.09h-6.844a1.124 1.124 0 01-1.089-1.09v-37.79zm14.545-.061a1.08 1.08 0 011.089-1.028h1.166c.632.07 1.222.35 1.677.795l21.363 20.56h.06V16.792a1.08 1.08 0 011.072-1.09h6.862c.59.023 1.062.5 1.08 1.09v37.852a1.073 1.073 0 01-1.08 1.028h-1.106a2.594 2.594 0 01-1.79-1.02l-21.31-21.363h-.062v21.294c0 .602-.486 1.089-1.088 1.089h-6.81a1.123 1.123 0 01-1.08-1.089l-.043-37.852zm64.711 7.363a1.071 1.071 0 001.114-1.027v-6.275a1.08 1.08 0 00-1.07-1.09h-8.124l2.826-1.978a1.174 1.174 0 00-.052-1.729l-2.645-2.851c-.389-.441-1.201-.139-1.486.164l-6.542 6.274a.685.685 0 01-.07.095h-7.587c-.601 0-1.089.487-1.089 1.089v37.817a1.09 1.09 0 001.09 1.089h23.635a1.08 1.08 0 001.114-1.045v-6.266a1.07 1.07 0 00-1.061-1.08h-15.833v-7.709h13.014a1.09 1.09 0 001.09-1.089v-6.222a1.123 1.123 0 00-1.09-1.08h-13.049v-7.087h15.815z"/><path fill="#FFF" d="M39.253 2.192A2.342 2.342 0 0036.592.22h-.01l-9.825 1.582a7.561 7.561 0 01-6.47 8.514 7.561 7.561 0 01-8.463-6.146L1.998 5.726A2.343 2.343 0 00.026 8.387l.001.01 9.316 58.765a2.332 2.332 0 002.666 1.945h.005l9.826-1.556a7.57 7.57 0 016.308-8.65 7.57 7.57 0 018.65 6.308l9.827-1.555a2.325 2.325 0 001.937-2.656l-.001-.015-9.308-58.791z" mask="url(#mask-2)"/><path fill="#B3B3B3" d="M27.215 48.275l-1.132-6.153a2.514 2.514 0 00-.813-1.253c-1.184-.924-4.39 1.037-2.886-6.05 1.504-7.086 3.63-3.974 5.09-4.32.496-.15.93-.452 1.244-.864l3.535-5.185a1.728 1.728 0 00-.138-2.092c-.985-1.01-2.593-2.48-3.777-2.74-2.592-.552-8.961 3.57-11.191 14.035-2.23 10.465 1.892 16.887 4.485 17.44 1.21.259 3.258-.441 4.563-.968a1.728 1.728 0 00.985-1.85"/></svg>